<svg width="36" height="36" viewBox="0 0 36 36" fill="none" xmlns="http://www.w3.org/2000/svg">
<g clip-path="url(#clip0_1856_1743)">
<path d="M23 14.6666C23 11.9071 20.7596 9.66663 18 9.66663C15.2404 9.66663 13 11.9071 13 14.6666C13 20.5 10.5 22.1666 10.5 22.1666H25.5C31.3333 22.1666 23 20.5 23 14.6666" stroke="#475569" stroke-width="1.66667" stroke-linecap="round" stroke-linejoin="round"/>
<path d="M19.4414 25.5C19.1433 26.014 18.594 26.3304 17.9998 26.3304C17.4055 26.3304 16.8563 26.014 16.5581 25.5" stroke="#475569" stroke-width="1.66667" stroke-linecap="round" stroke-linejoin="round"/>
</g>
<rect x="20" y="8" width="8" height="8" rx="4" fill="#10C98B"/>
<g filter="url(#filter0_d_1856_1743)">
<rect x="20" y="8" width="8" height="8" rx="4" fill="white" fill-opacity="0.01" shape-rendering="crispEdges"/>
</g>
<defs>
<filter id="filter0_d_1856_1743" x="18" y="6" width="12" height="12" filterUnits="userSpaceOnUse" color-interpolation-filters="sRGB">
<feFlood flood-opacity="0" result="BackgroundImageFix"/>
<feColorMatrix in="SourceAlpha" type="matrix" values="0 0 0 0 0 0 0 0 0 0 0 0 0 0 0 0 0 0 127 0" result="hardAlpha"/>
<feMorphology radius="2" operator="dilate" in="SourceAlpha" result="effect1_dropShadow_1856_1743"/>
<feOffset/>
<feComposite in2="hardAlpha" operator="out"/>
<feColorMatrix type="matrix" values="0 0 0 0 1 0 0 0 0 1 0 0 0 0 1 0 0 0 1 0"/>
<feBlend mode="normal" in2="BackgroundImageFix" result="effect1_dropShadow_1856_1743"/>
<feBlend mode="normal" in="SourceGraphic" in2="effect1_dropShadow_1856_1743" result="shape"/>
</filter>
<clipPath id="clip0_1856_1743">
<rect width="20" height="20" fill="white" transform="translate(8 8)"/>
</clipPath>
</defs>
</svg>
